<svg width="107" height="33" viewBox="0 0 107 33" fill="none" xmlns="http://www.w3.org/2000/svg">
<path d="M3.344 12.7937V15.5937H7.104V17.3697H3.344V20.3297H7.584V22.1537H1.104V10.9697H7.584V12.7937H3.344ZM14.5316 13.1617C15.5876 13.1617 16.441 13.4977 17.0916 14.1697C17.7423 14.831 18.0676 15.759 18.0676 16.9537V22.1537H15.8276V17.2577C15.8276 16.5537 15.6516 16.015 15.2996 15.6417C14.9476 15.2577 14.4676 15.0657 13.8596 15.0657C13.241 15.0657 12.7503 15.2577 12.3876 15.6417C12.0356 16.015 11.8596 16.5537 11.8596 17.2577V22.1537H9.61963V13.2897H11.8596V14.3937C12.1583 14.0097 12.537 13.711 12.9956 13.4977C13.465 13.2737 13.977 13.1617 14.5316 13.1617ZM23.6698 13.1457C24.3311 13.1457 24.9124 13.279 25.4138 13.5457C25.9151 13.8017 26.3098 14.1377 26.5978 14.5537V13.2897H28.8538V22.2177C28.8538 23.039 28.6884 23.7697 28.3578 24.4097C28.0271 25.0604 27.5311 25.5724 26.8698 25.9457C26.2084 26.3297 25.4084 26.5217 24.4698 26.5217C23.2111 26.5217 22.1764 26.2284 21.3658 25.6417C20.5658 25.055 20.1124 24.255 20.0058 23.2417H22.2298C22.3471 23.647 22.5978 23.967 22.9818 24.2017C23.3764 24.447 23.8511 24.5697 24.4058 24.5697C25.0564 24.5697 25.5844 24.3724 25.9898 23.9777C26.3951 23.5937 26.5978 23.007 26.5978 22.2177V20.8417C26.3098 21.2577 25.9098 21.6044 25.3978 21.8817C24.8964 22.159 24.3204 22.2977 23.6698 22.2977C22.9231 22.2977 22.2404 22.1057 21.6218 21.7217C21.0031 21.3377 20.5124 20.799 20.1497 20.1057C19.7977 19.4017 19.6217 18.5964 19.6217 17.6897C19.6217 16.7937 19.7977 15.999 20.1497 15.3057C20.5124 14.6124 20.9978 14.079 21.6058 13.7057C22.2244 13.3324 22.9124 13.1457 23.6698 13.1457ZM26.5978 17.7217C26.5978 17.1777 26.4911 16.7137 26.2778 16.3297C26.0644 15.935 25.7764 15.6364 25.4138 15.4337C25.0511 15.2204 24.6618 15.1137 24.2458 15.1137C23.8298 15.1137 23.4458 15.215 23.0938 15.4177C22.7418 15.6204 22.4538 15.919 22.2298 16.3137C22.0164 16.6977 21.9098 17.1564 21.9098 17.6897C21.9098 18.223 22.0164 18.6924 22.2298 19.0977C22.4538 19.4924 22.7418 19.7964 23.0938 20.0097C23.4564 20.223 23.8404 20.3297 24.2458 20.3297C24.6618 20.3297 25.0511 20.2284 25.4138 20.0257C25.7764 19.8124 26.0644 19.5137 26.2778 19.1297C26.4911 18.735 26.5978 18.2657 26.5978 17.7217ZM33.2815 10.3137V22.1537H31.0415V10.3137H33.2815ZM36.6306 12.2337C36.236 12.2337 35.9053 12.111 35.6386 11.8657C35.3826 11.6097 35.2546 11.295 35.2546 10.9217C35.2546 10.5484 35.3826 10.239 35.6386 9.9937C35.9053 9.7377 36.236 9.6097 36.6306 9.6097C37.0253 9.6097 37.3506 9.7377 37.6066 9.9937C37.8733 10.239 38.0066 10.5484 38.0066 10.9217C38.0066 11.295 37.8733 11.6097 37.6066 11.8657C37.3506 12.111 37.0253 12.2337 36.6306 12.2337ZM37.7346 13.2897V22.1537H35.4946V13.2897H37.7346ZM43.3398 22.2977C42.6144 22.2977 41.9638 22.1697 41.3878 21.9137C40.8118 21.647 40.3531 21.2897 40.0118 20.8417C39.6811 20.3937 39.4998 19.8977 39.4678 19.3537H41.7238C41.7664 19.695 41.9318 19.9777 42.2198 20.2017C42.5184 20.4257 42.8864 20.5377 43.3238 20.5377C43.7504 20.5377 44.0811 20.4524 44.3158 20.2817C44.5611 20.111 44.6838 19.8924 44.6838 19.6257C44.6838 19.3377 44.5344 19.1244 44.2358 18.9857C43.9478 18.8364 43.4838 18.6764 42.8438 18.5057C42.1824 18.3457 41.6384 18.1804 41.2118 18.0097C40.7958 17.839 40.4331 17.5777 40.1238 17.2257C39.8251 16.8737 39.6758 16.399 39.6758 15.8017C39.6758 15.311 39.8144 14.863 40.0918 14.4577C40.3798 14.0524 40.7851 13.7324 41.3078 13.4977C41.8411 13.263 42.4651 13.1457 43.1798 13.1457C44.2358 13.1457 45.0784 13.4124 45.7078 13.9457C46.3371 14.4684 46.6838 15.1777 46.7478 16.0737H44.6038C44.5718 15.7217 44.4224 15.4444 44.1558 15.2417C43.8998 15.0284 43.5531 14.9217 43.1158 14.9217C42.7104 14.9217 42.3958 14.9964 42.1718 15.1457C41.9584 15.295 41.8518 15.503 41.8518 15.7697C41.8518 16.0684 42.0011 16.2977 42.2998 16.4577C42.5984 16.607 43.0624 16.7617 43.6918 16.9217C44.3318 17.0817 44.8598 17.247 45.2758 17.4177C45.6918 17.5884 46.0491 17.855 46.3478 18.2177C46.6571 18.5697 46.8171 19.039 46.8278 19.6257C46.8278 20.1377 46.6838 20.5964 46.3958 21.0017C46.1184 21.407 45.7131 21.727 45.1798 21.9617C44.6571 22.1857 44.0438 22.2977 43.3398 22.2977ZM53.6585 13.1617C54.3305 13.1617 54.9278 13.311 55.4505 13.6097C55.9732 13.8977 56.3785 14.3297 56.6665 14.9057C56.9652 15.471 57.1145 16.1537 57.1145 16.9537V22.1537H54.8745V17.2577C54.8745 16.5537 54.6985 16.015 54.3465 15.6417C53.9945 15.2577 53.5145 15.0657 52.9065 15.0657C52.2878 15.0657 51.7972 15.2577 51.4345 15.6417C51.0825 16.015 50.9065 16.5537 50.9065 17.2577V22.1537H48.6665V10.3137H50.9065V14.3937C51.1945 14.0097 51.5785 13.711 52.0585 13.4977C52.5385 13.2737 53.0718 13.1617 53.6585 13.1617Z" fill="#014527"/>
<g clip-path="url(#clip0_213_204)">
<path d="M87.2316 16.9074C87.1803 16.6505 85.4127 7.81239 85.3566 7.53233C85.2691 7.09414 84.8843 6.7787 84.4374 6.7787H82.5624C82.1155 6.7787 81.7307 7.09414 81.6431 7.53233C81.5862 7.81714 79.8168 16.6643 79.7681 16.9073C79.6666 17.4151 79.9959 17.909 80.5036 18.0105C81.0113 18.112 81.5052 17.7827 81.6067 17.275L82.206 14.2787H84.7938L85.3931 17.2751C85.4946 17.783 85.9888 18.1121 86.4962 18.0105C87.0039 17.909 87.3332 17.4151 87.2316 16.9074ZM82.581 12.4037L83.331 8.6537H83.6688L84.4188 12.4037H82.581Z" fill="#014527"/>
<path d="M102.25 14.2787H99.4375V13.3412C99.4375 12.8234 99.0177 12.4037 98.5 12.4037C97.9823 12.4037 97.5625 12.8234 97.5625 13.3412V14.2787H94.75C94.2322 14.2787 93.8125 14.6984 93.8125 15.2162C93.8125 15.7339 94.2322 16.1537 94.75 16.1537H94.9769C95.5111 17.8794 96.3153 19.2041 97.2003 20.2656C96.48 20.9244 95.7511 21.4647 95.1019 21.9841C94.6976 22.3076 94.632 22.8975 94.9555 23.3018C95.2791 23.7063 95.8691 23.7715 96.2732 23.4482C96.9261 22.9259 97.7086 22.3454 98.5 21.6192C99.2919 22.3459 100.076 22.9274 100.727 23.4482C101.131 23.7717 101.721 23.7061 102.045 23.3018C102.368 22.8975 102.302 22.3075 101.898 21.9841C101.251 21.4659 100.521 20.9251 99.7997 20.2656C100.685 19.2041 101.489 17.8794 102.023 16.1537H102.25C102.768 16.1537 103.188 15.7339 103.188 15.2162C103.188 14.6984 102.768 14.2787 102.25 14.2787ZM98.5 18.8877C97.9016 18.1365 97.3632 17.2398 96.9573 16.1474H100.043C99.6368 17.2398 99.0984 18.1365 98.5 18.8877Z" fill="#014527"/>
<path d="M104.188 5.8412H90.6624L90.2606 2.61733C90.085 1.21283 88.8853 0.153702 87.4698 0.153702H77.8125C76.2617 0.153702 75 1.41539 75 2.9662V23.6537C75 25.2045 76.2617 26.4662 77.8125 26.4662H85.7177L86.1144 29.6901C86.2897 31.0918 87.4894 32.1537 88.9052 32.1537H104.188C105.738 32.1537 107 30.892 107 29.3412V8.6537C107 7.10289 105.738 5.8412 104.188 5.8412ZM77.8125 24.5912C77.2956 24.5912 76.875 24.1706 76.875 23.6537V2.9662C76.875 2.44926 77.2956 2.0287 77.8125 2.0287H87.4698C87.9416 2.0287 88.3416 2.3817 88.4 2.84958C88.5359 3.93933 90.9755 23.5102 91.1103 24.5912H77.8125ZM87.9202 29.0131L87.6068 26.4662H90.1221L87.9202 29.0131ZM105.125 29.3412C105.125 29.8581 104.704 30.2787 104.188 30.2787H89.3046L92.8736 26.1504C93.0563 25.9443 93.1382 25.6708 93.1004 25.3989L90.8962 7.7162H104.188C104.704 7.7162 105.125 8.13676 105.125 8.6537V29.3412Z" fill="#014527"/>
</g>
<defs>
<clipPath id="clip0_213_204">
<rect width="32" height="32" fill="white" transform="translate(75 0.153702)"/>
</clipPath>
</defs>
</svg>
