<svg width="32" height="33" viewBox="0 0 32 33" fill="none" xmlns="http://www.w3.org/2000/svg">
<g clip-path="url(#clip0_213_206)">
<path d="M12.2316 16.9074C12.1803 16.6505 10.4127 7.81239 10.3566 7.53233C10.2691 7.09414 9.88427 6.7787 9.4374 6.7787H7.5624C7.11552 6.7787 6.73071 7.09414 6.64315 7.53233C6.58621 7.81714 4.81677 16.6643 4.76815 16.9073C4.66658 17.4151 4.9959 17.909 5.50358 18.0105C6.01127 18.112 6.50521 17.7827 6.60671 17.275L7.20596 14.2787H9.79383L10.3931 17.2751C10.4946 17.783 10.9888 18.1121 11.4962 18.0105C12.0039 17.909 12.3332 17.4151 12.2316 16.9074ZM7.58096 12.4037L8.33096 8.6537H8.66883L9.41883 12.4037H7.58096Z" fill="#014527"/>
<path d="M27.25 14.2787H24.4375V13.3412C24.4375 12.8234 24.0177 12.4037 23.5 12.4037C22.9823 12.4037 22.5625 12.8234 22.5625 13.3412V14.2787H19.75C19.2322 14.2787 18.8125 14.6984 18.8125 15.2162C18.8125 15.7339 19.2322 16.1537 19.75 16.1537H19.9769C20.5111 17.8794 21.3153 19.2041 22.2003 20.2656C21.48 20.9244 20.7511 21.4647 20.1019 21.9841C19.6976 22.3076 19.632 22.8975 19.9555 23.3018C20.2791 23.7063 20.8691 23.7715 21.2732 23.4482C21.9261 22.9259 22.7086 22.3454 23.5 21.6192C24.2919 22.3459 25.0759 22.9274 25.7268 23.4482C26.1311 23.7717 26.7211 23.7061 27.0445 23.3018C27.3679 22.8975 27.3024 22.3075 26.8981 21.9841C26.2506 21.4659 25.5208 20.9251 24.7997 20.2656C25.6847 19.2041 26.4889 17.8794 27.0231 16.1537H27.25C27.7677 16.1537 28.1875 15.7339 28.1875 15.2162C28.1875 14.6984 27.7677 14.2787 27.25 14.2787ZM23.5 18.8877C22.9016 18.1365 22.3632 17.2398 21.9573 16.1474H25.0426C24.6368 17.2398 24.0984 18.1365 23.5 18.8877Z" fill="#014527"/>
<path d="M29.1875 5.8412H15.6624L15.2606 2.61733C15.085 1.21283 13.8853 0.153702 12.4698 0.153702H2.8125C1.26169 0.153702 0 1.41539 0 2.9662V23.6537C0 25.2045 1.26169 26.4662 2.8125 26.4662H10.7177L11.1144 29.6901C11.2897 31.0918 12.4894 32.1537 13.9052 32.1537H29.1875C30.7383 32.1537 32 30.892 32 29.3412V8.6537C32 7.10289 30.7383 5.8412 29.1875 5.8412ZM2.8125 24.5912C2.29556 24.5912 1.875 24.1706 1.875 23.6537V2.9662C1.875 2.44926 2.29556 2.0287 2.8125 2.0287H12.4698C12.9416 2.0287 13.3416 2.3817 13.4 2.84958C13.5359 3.93933 15.9755 23.5102 16.1103 24.5912H2.8125ZM12.9202 29.0131L12.6068 26.4662H15.1221L12.9202 29.0131ZM30.125 29.3412C30.125 29.8581 29.7044 30.2787 29.1875 30.2787H14.3046L17.8736 26.1504C18.0563 25.9443 18.1382 25.6708 18.1004 25.3989L15.8962 7.7162H29.1875C29.7044 7.7162 30.125 8.13676 30.125 8.6537V29.3412Z" fill="#014527"/>
</g>
<defs>
<clipPath id="clip0_213_206">
<rect width="32" height="32" fill="white" transform="translate(0 0.153702)"/>
</clipPath>
</defs>
</svg>
