<svg width="55" height="55" viewBox="0 0 55 55" fill="none" xmlns="http://www.w3.org/2000/svg">
<circle cx="27.5" cy="27.5" r="27.5" fill="#034729"/>
<mask id="mask0_13_108" style="mask-type:luminance" maskUnits="userSpaceOnUse" x="18" y="24" width="20" height="15">
<path fill-rule="evenodd" clip-rule="evenodd" d="M18.0004 24.7941H38V38.5381H18.0004V24.7941Z" fill="white"/>
</mask>
<g mask="url(#mask0_13_108)">
<path fill-rule="evenodd" clip-rule="evenodd" d="M33.5654 38.5381H22.4354C19.9904 38.5381 18.0004 36.5491 18.0004 34.1031V29.2281C18.0004 26.7831 19.9904 24.7941 22.4354 24.7941H23.3684C23.7824 24.7941 24.1184 25.1301 24.1184 25.5441C24.1184 25.9581 23.7824 26.2941 23.3684 26.2941H22.4354C20.8164 26.2941 19.5004 27.6101 19.5004 29.2281V34.1031C19.5004 35.7221 20.8164 37.0381 22.4354 37.0381H33.5654C35.1834 37.0381 36.5004 35.7221 36.5004 34.1031V29.2191C36.5004 27.6061 35.1884 26.2941 33.5764 26.2941H32.6334C32.2194 26.2941 31.8834 25.9581 31.8834 25.5441C31.8834 25.1301 32.2194 24.7941 32.6334 24.7941H33.5764C36.0154 24.7941 38.0004 26.7791 38.0004 29.2191V34.1031C38.0004 36.5491 36.0104 38.5381 33.5654 38.5381Z" fill="white"/>
</g>
<mask id="mask1_13_108" style="mask-type:luminance" maskUnits="userSpaceOnUse" x="27" y="18" width="2" height="14">
<path fill-rule="evenodd" clip-rule="evenodd" d="M27.25 18.0001H28.75V31.541H27.25V18.0001Z" fill="white"/>
</mask>
<g mask="url(#mask1_13_108)">
<path fill-rule="evenodd" clip-rule="evenodd" d="M28 31.541C27.586 31.541 27.25 31.205 27.25 30.791V18.75C27.25 18.336 27.586 18 28 18C28.414 18 28.75 18.336 28.75 18.75V30.791C28.75 31.205 28.414 31.541 28 31.541Z" fill="white"/>
</g>
<path fill-rule="evenodd" clip-rule="evenodd" d="M25.085 22.4287C24.894 22.4287 24.702 22.3557 24.556 22.2097C24.263 21.9177 24.261 21.4437 24.554 21.1497L27.469 18.2217C27.75 17.9387 28.25 17.9387 28.531 18.2217L31.447 21.1497C31.739 21.4437 31.738 21.9177 31.445 22.2097C31.151 22.5017 30.677 22.5017 30.385 22.2077L28 19.8137L25.616 22.2077C25.47 22.3557 25.277 22.4287 25.085 22.4287Z" fill="white"/>
</svg>
